<svg width="130" height="130" viewBox="0 0 130 130" fill="none" xmlns="http://www.w3.org/2000/svg">
<g clip-path="url(#clip0_460_5810)">
<rect width="130" height="130" rx="65" fill="#F3F6FF"/>
<ellipse cx="-7.62576" cy="64.315" rx="22.4801" ry="31.1109" transform="rotate(29.8279 -7.62576 64.315)" fill="#E7A950"/>
<ellipse cx="-9.10745" cy="62.8332" rx="22.4801" ry="31.1109" transform="rotate(29.8279 -9.10745 62.8332)" fill="#EFC75C"/>
<path fill-rule="evenodd" clip-rule="evenodd" d="M19.3441 46.9665L24.2032 47.778L19.9499 52.7081L19.6994 50.3345L-9.05521 63.3304C-9.30684 63.4441 -9.53432 63.3137 -9.5633 63.0391C-9.59228 62.7645 -9.41178 62.4497 -9.16014 62.3359L19.5945 49.34L19.3441 46.9665Z" fill="#E7A950"/>
<ellipse cx="65.9978" cy="64.315" rx="22.4801" ry="31.1109" transform="rotate(29.8279 65.9978 64.315)" fill="#E7A950"/>
<ellipse cx="64.5161" cy="62.8332" rx="22.4801" ry="31.1109" transform="rotate(29.8279 64.5161 62.8332)" fill="#EFC75C"/>
<ellipse cx="64.516" cy="62.8337" rx="3.21144" ry="4.44441" transform="rotate(29.8279 64.516 62.8337)" fill="#E7A950"/>
<path fill-rule="evenodd" clip-rule="evenodd" d="M92.9676 46.9665L97.8268 47.778L93.5734 52.7081L93.323 50.3345L64.5683 63.3304C64.3167 63.4441 64.0892 63.3137 64.0602 63.0391C64.0313 62.7645 64.2118 62.4497 64.4634 62.3359L93.218 49.34L92.9676 46.9665Z" fill="#E7A950"/>
<path fill-rule="evenodd" clip-rule="evenodd" d="M35.9525 67.0028L31.5281 64.4118L37.0922 61.3429L36.6211 63.6827L64.6146 62.3429C64.8905 62.3297 65.0699 62.5385 65.0154 62.8092C64.9609 63.0799 64.6931 63.3101 64.4173 63.3233L36.4237 64.663L35.9525 67.0028Z" fill="#E7A950"/>
<ellipse cx="139.621" cy="64.3147" rx="22.48" ry="31.1107" transform="rotate(29.8279 139.621 64.3147)" fill="#E7A950"/>
<ellipse cx="138.139" cy="62.8329" rx="22.48" ry="31.1107" transform="rotate(29.8279 138.139 62.8329)" fill="#EFC75C"/>
<path fill-rule="evenodd" clip-rule="evenodd" d="M109.576 67.0028L105.152 64.4118L110.716 61.3429L110.244 63.6827L138.238 62.3429C138.514 62.3297 138.693 62.5385 138.639 62.8092C138.584 63.0799 138.316 63.3101 138.041 63.3233L110.047 64.663L109.576 67.0028Z" fill="#E7A950"/>
</g>
<defs>
<clipPath id="clip0_460_5810">
<rect width="130" height="130" rx="65" fill="white"/>
</clipPath>
</defs>
</svg>
