<svg width="130" height="130" viewBox="0 0 130 130" fill="none" xmlns="http://www.w3.org/2000/svg">
<g clip-path="url(#clip0_460_5795)">
<rect width="130" height="130" rx="65" fill="#F3F6FF"/>
<path d="M1.91599 51.7037C2.18185 50.8766 2.95126 50.3157 3.82005 50.3157H107.731C109.087 50.3157 110.05 51.6367 109.635 52.9278L99.9877 82.9405C99.7218 83.7677 98.9524 84.3285 98.0836 84.3285H-5.82692C-7.183 84.3285 -8.14595 83.0075 -7.73098 81.7165L1.91599 51.7037Z" fill="#3E58E0"/>
<path d="M-0.513453 48.0595C-0.247597 47.2324 0.521821 46.6715 1.3906 46.6715H105.301C106.657 46.6715 107.62 47.9925 107.205 49.2835L97.5582 79.2963C97.2924 80.1234 96.523 80.6843 95.6542 80.6843H-8.25636C-9.61245 80.6843 -10.5754 79.3633 -10.1604 78.0723L-0.513453 48.0595Z" fill="#DCDFFA"/>
<path d="M70.3877 74.6106L77.5227 51.5304" stroke="#A5AEE3" stroke-width="2" stroke-linecap="round"/>
<path d="M63.0994 63.6779L54.5962 66.7148L44.2709 60.0337L31.5161 66.7148L16.3318 58.2116L2.9696 63.6779" stroke="#A5AEE3" stroke-width="2" stroke-linecap="round"/>
<path d="M93.4678 70.9664L89.8235 63.6779" stroke="#3E58E0" stroke-width="1.5" stroke-linecap="round"/>
<path d="M93.4678 70.9664L91.0383 66.1074" stroke="#3E58E0" stroke-width="2.5" stroke-linecap="round"/>
<path d="M116.124 72.5599L112.267 69.5078C111.847 69.1752 111.239 69.2331 110.889 69.6391L109.017 71.8111C108.546 72.357 107.67 72.241 107.358 71.5915L101.222 58.8261C100.84 58.03 101.602 57.165 102.44 57.4442L115.754 61.8795C116.429 62.1043 116.66 62.9418 116.196 63.4807L114.24 65.7525C113.862 66.1913 113.935 66.8583 114.398 67.2054L117.986 69.8923C118.394 70.1984 118.507 70.7631 118.246 71.2024L117.605 72.2854C117.296 72.8065 116.599 72.9357 116.124 72.5599Z" fill="black"/>
<path d="M89.2874 62.8213C87.8739 63.6514 86.3837 63.9644 85.1418 63.8426C83.8988 63.7206 82.9824 63.1804 82.5112 62.3781C82.04 61.5757 82.0146 60.5123 82.5136 59.3673C83.0122 58.2234 84.0115 57.0744 85.4251 56.2443C86.8386 55.4142 88.3288 55.1011 89.5707 55.223C90.8137 55.3449 91.7301 55.8852 92.2013 56.6875C92.6724 57.4899 92.6979 58.5533 92.1988 59.6983C91.7003 60.8422 90.701 61.9911 89.2874 62.8213Z" stroke="#3E58E0" stroke-width="2"/>
</g>
<defs>
<clipPath id="clip0_460_5795">
<rect width="130" height="130" rx="65" fill="white"/>
</clipPath>
</defs>
</svg>
