<svg width="130" height="130" viewBox="0 0 130 130" fill="none" xmlns="http://www.w3.org/2000/svg">
<g clip-path="url(#clip0_460_5835)">
<rect width="130" height="130" rx="65" fill="#F3F6FF"/>
<path fill-rule="evenodd" clip-rule="evenodd" d="M65.0745 72.793C64.5667 73.0101 63.979 72.7744 63.762 72.2666L58.79 60.6356C58.5729 60.1278 58.8086 59.5401 59.3164 59.3231C59.8242 59.106 60.4119 59.3417 60.629 59.8495L65.601 71.4804C65.8181 71.9883 65.5824 72.5759 65.0745 72.793Z" fill="#EFC75C"/>
<path fill-rule="evenodd" clip-rule="evenodd" d="M61.5954 73.7736C61.2779 74.2255 60.6542 74.3344 60.2023 74.0169L47.4216 65.0362C46.9697 64.7186 46.8608 64.0949 47.1783 63.643C47.4958 63.1912 48.1196 63.0822 48.5714 63.3998L61.3522 72.3805C61.804 72.698 61.913 73.3217 61.5954 73.7736Z" fill="#EFC75C"/>
<path fill-rule="evenodd" clip-rule="evenodd" d="M62.1031 77.2555C62.0642 77.8064 61.5861 78.2215 61.0352 78.1827L47.9149 77.2571C47.3639 77.2182 46.9488 76.7401 46.9877 76.1892C47.0266 75.6383 47.5047 75.2232 48.0556 75.262L61.1759 76.1876C61.7269 76.2265 62.142 76.7046 62.1031 77.2555Z" fill="#EFC75C"/>
<ellipse cx="74.8454" cy="80.3591" rx="8.33035" ry="4.99821" transform="rotate(28.8901 74.8454 80.3591)" fill="#DE5257"/>
<path d="M76.5412 60.4294L92.9079 70.5354L81.4046 85.3061L67.9981 75.8977L76.5412 60.4294Z" fill="#DE5257"/>
<path fill-rule="evenodd" clip-rule="evenodd" d="M114.111 52.4411C115.425 51.7457 116.471 50.7761 117.155 49.5356C120.086 44.2242 115.286 35.9586 106.433 31.0739C97.581 26.1891 88.0288 26.535 85.098 31.8464C84.5775 32.7895 84.3009 33.8257 84.2474 34.9197L76.138 60.4895C75.899 60.7318 75.6944 61.0033 75.5285 61.3039C73.9258 64.2083 76.5508 68.7282 81.3915 71.3993C86.2322 74.0704 91.4556 73.8813 93.0583 70.9769C93.0924 70.915 93.1246 70.8524 93.155 70.7891L114.111 52.4411Z" fill="#F8CBCA"/>
<path fill-rule="evenodd" clip-rule="evenodd" d="M146.385 12.2458L108.954 -11.0419L87.1077 24.4927L87.1444 24.5171C86.7299 24.982 86.3699 25.4939 86.0704 26.0526C82.7387 32.267 88.1544 41.9153 98.1667 47.6026C107.672 53.0019 117.903 52.8902 121.765 47.5477L121.847 47.6018L146.385 12.2458Z" fill="#F8CBCA"/>
<path fill-rule="evenodd" clip-rule="evenodd" d="M147.495 10.6225L109.44 -13.0534L87.2296 23.0734L87.267 23.0983C86.8456 23.5709 86.4795 24.0914 86.175 24.6594C82.7878 30.9774 88.2938 40.7865 98.473 46.5686C108.137 52.0578 118.538 51.9443 122.465 46.5127L122.548 46.5677L147.495 10.6225Z" fill="#DE5257"/>
<path fill-rule="evenodd" clip-rule="evenodd" d="M81.4214 39.9351C81.3682 44.7331 85.5324 50.5898 92.1385 54.3423C94.3381 55.5917 96.5851 56.481 98.7486 57.0154C96.3762 56.57 93.8599 55.6546 91.4066 54.261C84.8318 50.5263 80.8387 44.5669 81.4214 39.9351Z" fill="white"/>
<path fill-rule="evenodd" clip-rule="evenodd" d="M78.7956 49.2618C78.7523 53.1663 82.1411 57.9324 87.517 60.9862C89.3065 62.0026 91.1346 62.7262 92.8948 63.1611C90.9646 62.7986 88.9174 62.0537 86.9214 60.9199C81.5709 57.8807 78.3214 53.031 78.7956 49.2618Z" fill="white"/>
<path fill-rule="evenodd" clip-rule="evenodd" d="M76.0926 59.7411C76.0637 62.3443 78.3231 65.5221 81.9074 67.5581C83.1011 68.2361 84.3204 68.7187 85.4945 69.0086C84.2071 68.767 82.8416 68.2702 81.5103 67.514C77.9429 65.4876 75.7764 62.2542 76.0926 59.7411Z" fill="white"/>
<path fill-rule="evenodd" clip-rule="evenodd" d="M-16.2856 62.2867C-14.0813 62.433 -12.413 64.3385 -12.5593 66.5428C-12.9777 72.8481 -9.40225 79.3779 -2.11071 84.7672C5.13893 90.1256 15.633 93.9698 27.66 94.768C39.687 95.5661 50.597 93.1424 58.4912 88.789C66.4309 84.4104 70.8379 78.4103 71.2564 72.1051C71.4026 69.9008 73.3082 68.2324 75.5124 68.3787C77.7167 68.525 82.3785 70.6292 82.2322 72.8335C81.5718 82.7849 71.6014 92.6175 62.222 97.79C52.7969 102.988 40.3202 105.63 26.9978 104.746C13.6754 103.862 -0.205876 97.4658 -8.86142 91.0682C-17.4751 84.7017 -21.2021 75.9645 -20.5417 66.0131C-20.3954 63.8088 -18.4899 62.1404 -16.2856 62.2867Z" fill="#DE5257"/>
<path fill-rule="evenodd" clip-rule="evenodd" d="M-0.717064 51.5388C-7.07656 56.0744 -10.7974 62.6466 -11.2612 69.6355C-11.725 76.6244 -10.5417 80.4009 -3.00226 85.9735C4.51099 91.5267 15.2908 95.4504 27.5607 96.2647C39.8306 97.0789 51.0344 94.6142 59.2155 90.1025C67.4253 85.5751 72.2893 79.1933 72.7531 72.2044C72.8445 70.8267 74.0355 69.784 75.4132 69.8754C76.7908 69.9669 77.8335 71.1578 77.7421 72.5355C77.1271 81.8032 70.7396 89.4572 61.6301 94.4808C52.4921 99.5202 40.3091 102.122 27.2296 101.254C14.1501 100.386 2.41774 96.1971 -5.9742 89.9944C-14.3399 83.8111 -19.66 75.3801 -19.045 66.1124C-18.4299 56.8446 -12.0424 49.1907 -2.93295 44.167C6.20505 39.1277 18.388 36.5262 31.4675 37.3942C42.5594 38.1303 52.6682 41.2526 60.5949 45.9543C61.7824 46.6587 62.174 48.1924 61.4696 49.3799C60.7652 50.5675 59.2316 50.9591 58.044 50.2547C50.8586 45.9926 41.4914 43.5715 31.1033 42.8821C20.7152 42.1927 9.88228 43.9793 -0.717064 51.5388Z" fill="#DE5257"/>
</g>
<defs>
<clipPath id="clip0_460_5835">
<rect width="130" height="130" rx="65" fill="white"/>
</clipPath>
</defs>
</svg>
