<svg width="132" height="130" viewBox="0 0 132 130" fill="none" xmlns="http://www.w3.org/2000/svg">
<g clip-path="url(#clip0_556_27389)">
<path d="M66.1033 99.4936C90.737 99.4936 110.707 95.7623 110.707 91.1594C110.707 86.5565 90.737 82.8252 66.1033 82.8252C41.4696 82.8252 21.5 86.5565 21.5 91.1594C21.5 95.7623 41.4696 99.4936 66.1033 99.4936Z" fill="#F5F5F7" fill-opacity="0.8"/>
<path fill-rule="evenodd" clip-rule="evenodd" d="M101.786 66.6754L86.0455 47.3037C85.2902 46.3918 84.1863 45.8398 83.0238 45.8398H49.1817C48.0198 45.8398 46.9159 46.3918 46.1606 47.3037L30.4211 66.6754V76.7958H101.786V66.6754H101.786Z" fill="#3E58E0"/>
<path fill-rule="evenodd" clip-rule="evenodd" d="M43.7566 20.8369H88.4493C89.1473 20.8369 89.8166 21.1142 90.3102 21.6077C90.8037 22.1012 91.0809 22.7706 91.0809 23.4685V84.879C91.0809 85.577 90.8037 86.2463 90.3102 86.7398C89.8166 87.2333 89.1473 87.5106 88.4493 87.5106H43.7566C43.0586 87.5106 42.3893 87.2333 41.8958 86.7398C41.4023 86.2463 41.125 85.577 41.125 84.879V23.4685C41.125 22.7706 41.4023 22.1012 41.8958 21.6077C42.3893 21.1142 43.0586 20.8369 43.7566 20.8369V20.8369Z" fill="#ECEEFF"/>
<path fill-rule="evenodd" clip-rule="evenodd" d="M49.5777 27.3848H82.6283C82.9773 27.3848 83.312 27.5234 83.5587 27.7702C83.8055 28.0169 83.9441 28.3516 83.9441 28.7006V45.1196C83.9441 45.4686 83.8055 45.8033 83.5587 46.05C83.312 46.2968 82.9773 46.4354 82.6283 46.4354H49.5777C49.2287 46.4354 48.894 46.2968 48.6472 46.05C48.4005 45.8033 48.2619 45.4686 48.2619 45.1196V28.7006C48.2619 28.3516 48.4005 28.0169 48.6472 27.7702C48.894 27.5234 49.2287 27.3848 49.5777 27.3848ZM49.75 53.5782H82.4559C82.8506 53.5782 83.2291 53.735 83.5082 54.0141C83.7873 54.2931 83.9441 54.6717 83.9441 55.0663C83.9441 55.461 83.7873 55.8395 83.5082 56.1186C83.2291 56.3977 82.8506 56.5545 82.4559 56.5545H49.75C49.3553 56.5545 48.9768 56.3977 48.6977 56.1186C48.4186 55.8395 48.2619 55.461 48.2619 55.0663C48.2619 54.6717 48.4186 54.2931 48.6977 54.0141C48.9768 53.735 49.3553 53.5782 49.75 53.5782ZM49.75 61.317H82.4559C82.8507 61.317 83.2293 61.4738 83.5085 61.753C83.7876 62.0321 83.9444 62.4107 83.9444 62.8055C83.9444 63.2003 83.7876 63.5789 83.5085 63.858C83.2293 64.1372 82.8507 64.294 82.4559 64.294H49.75C49.3552 64.294 48.9766 64.1372 48.6975 63.858C48.4184 63.5789 48.2615 63.2003 48.2615 62.8055C48.2615 62.4107 48.4184 62.0321 48.6975 61.753C48.9766 61.4738 49.3552 61.317 49.75 61.317ZM101.64 89.9367C101.13 91.9571 99.3395 93.4631 97.2092 93.4631H34.9967C32.8665 93.4631 31.0757 91.9565 30.5665 89.9367C30.4693 89.5517 30.4203 89.1562 30.4204 88.7591V66.6756H47.7349C49.6474 66.6756 51.1888 68.2861 51.1888 70.2413V70.2677C51.1888 72.2223 52.748 73.8006 54.6605 73.8006H77.5454C79.4579 73.8006 81.0171 72.2078 81.0171 70.2525V70.2446C81.0171 68.2894 82.5586 66.6749 84.4711 66.6749H101.786V88.7598C101.786 89.1657 101.735 89.5598 101.64 89.9367Z" fill="#DCDFFA"/>
<path fill-rule="evenodd" clip-rule="evenodd" d="M103.816 21.9036L99.323 23.647C99.2075 23.6919 99.0818 23.7033 98.9602 23.6799C98.8385 23.6565 98.726 23.5992 98.6355 23.5147C98.545 23.4301 98.4802 23.3218 98.4485 23.202C98.4168 23.0823 98.4196 22.956 98.4565 22.8378L99.7309 18.7543C98.0276 16.8174 97.0276 14.4556 97.0276 11.9069C97.0276 5.33124 103.684 0.000976562 111.896 0.000976562C120.106 0.000976562 126.763 5.33124 126.763 11.9069C126.763 18.4826 120.107 23.8128 111.895 23.8128C108.916 23.8128 106.143 23.1115 103.816 21.9036Z" fill="#3E58E0"/>
<path d="M117.753 14.0565C118.788 14.0565 119.627 13.2273 119.627 12.2045C119.627 11.1817 118.788 10.3525 117.753 10.3525C116.718 10.3525 115.878 11.1817 115.878 12.2045C115.878 13.2273 116.718 14.0565 117.753 14.0565Z" fill="white"/>
<path fill-rule="evenodd" clip-rule="evenodd" d="M107.913 13.8248H104.165L106.071 10.584L107.913 13.8248ZM110.256 10.584H113.536V13.8248H110.256V10.584Z" fill="white"/>
<path d="M7.01953 113.679H1.44141V114.745H5.63184C5.37891 116.68 3.62891 118.204 0.798828 118.997L1.33203 120.009C4.87988 119.004 7.01953 116.796 7.01953 113.679ZM2.89062 124.999H10.9023V120.364H2.89062V124.999ZM4.16211 123.96V121.403H9.61719V123.96H4.16211ZM7.07422 117.069H9.60352V119.858H10.9023V112.927H9.60352V115.989H7.07422V117.069ZM16.5352 115.224V113.651H15.2773V115.224C15.2773 116.611 14.3887 118.19 12.7344 118.915L13.4453 119.913C14.6279 119.4 15.4619 118.416 15.9131 117.268C16.3506 118.3 17.1504 119.147 18.2715 119.599L18.9688 118.601C17.3828 117.979 16.5352 116.604 16.5352 115.224ZM14.9082 122.019H21.9492V125.163H23.2344V120.966H14.9082V122.019ZM19.3652 120.255H20.5684V117.124H22.0039V120.323H23.2344V112.927H22.0039V116.044H20.5684V113.132H19.3652V120.255ZM32.0254 116.837H27.3359V114.745H31.916V113.692H26.0371V117.89H28.3477V119.489C27.1514 119.523 25.9893 119.537 24.9434 119.544L25.1211 120.583C27.4248 120.59 30.2891 120.515 32.9004 120.159L32.8047 119.202C31.7998 119.312 30.7197 119.387 29.6328 119.441V117.89H32.0254V116.837ZM26.9668 124.903H35.4297V123.851H28.2656V121.444H26.9668V124.903ZM33.748 122.101H35.0469V112.913H33.748V122.101ZM51.5898 118.669H40.4062V119.735H51.5898V118.669ZM41.7324 122.921C41.7324 124.343 43.3252 125.143 45.9844 125.136C48.623 125.143 50.2021 124.343 50.209 122.921C50.2021 121.499 48.623 120.692 45.9844 120.692C43.3252 120.692 41.7324 121.499 41.7324 122.921ZM41.8008 117.603H50.291V116.55H43.0859V114.417H50.209V113.351H41.8008V117.603ZM43.0449 122.921C43.0381 122.142 44.1113 121.704 45.9844 121.69C47.8301 121.704 48.9102 122.142 48.9102 122.921C48.9102 123.707 47.8301 124.131 45.9844 124.138C44.1113 124.131 43.0381 123.707 43.0449 122.921ZM62.6914 112.913H61.3789V125.163H62.6914V112.913ZM52.6289 121.882L53.3125 122.935C57.5166 120.918 59.041 117.814 59.041 114.226H53.2168V115.265H57.7285C57.4756 118.122 55.8828 120.33 52.6289 121.882ZM74.1484 112.913H72.8496V125.149H74.1484V118.874H76.0488V117.794H74.1484V112.913ZM64.6191 121.882L65.3438 122.894C69.377 120.904 70.9355 117.739 70.9492 114.198H65.2344V115.278H69.623C69.3564 118.136 67.6885 120.351 64.6191 121.882ZM82.7344 120.091H81.5176V125.013H85.8516V120.091H84.6484V121.513H82.7344V120.091ZM80.3008 116.263C80.2939 117.951 81.6406 119.113 83.5137 119.106C85.1406 119.113 86.3984 118.184 86.6514 116.782H89.0371V119.407H90.3359V112.913H89.0371V115.716H86.6445C86.3779 114.342 85.127 113.433 83.5137 113.433C81.6406 113.433 80.2939 114.588 80.3008 116.263ZM81.5449 116.263C81.5381 115.217 82.3584 114.506 83.5137 114.513C84.6484 114.506 85.4551 115.217 85.4551 116.263C85.4551 117.322 84.6484 118.047 83.5137 118.054C82.3584 118.047 81.5381 117.322 81.5449 116.263ZM82.7344 124.001V122.497H84.6484V124.001H82.7344ZM85.9199 124.124L86.5762 125.108C87.6289 124.671 88.3467 123.857 88.75 122.914C89.1396 123.885 89.8574 124.685 90.9648 125.108L91.6348 124.124C90.124 123.591 89.3994 122.292 89.4062 121.007V120.009H88.1211V121.007C88.1211 122.23 87.3965 123.516 85.9199 124.124ZM94.8887 120.255H93.6035V125.013H101.943V120.255H100.645V121.554H94.8887V120.255ZM92.2227 119.489H103.393V118.409H92.2227V119.489ZM92.8242 116.632L93.3164 117.657C95.2852 117.384 97.0215 116.447 97.8145 115.135C98.6006 116.44 100.33 117.384 102.312 117.657L102.777 116.632C100.433 116.345 98.4775 114.978 98.4707 113.569V113.05H97.1445V113.569C97.1377 115.019 95.1963 116.324 92.8242 116.632ZM94.8887 123.974V122.565H100.645V123.974H94.8887ZM114.494 112.913H113.195V125.163H114.494V112.913ZM105.074 122.046H106.1C108.034 122.053 110.003 121.902 112.17 121.458L111.992 120.364C110.03 120.761 108.15 120.918 106.359 120.925V114.103H105.074V122.046ZM125.965 112.913H124.666V125.19H125.965V118.724H127.934V117.657H125.965V112.913ZM116.941 122.142H117.926C120.202 122.148 121.829 122.087 123.75 121.745L123.586 120.651C121.836 120.966 120.298 121.055 118.24 121.062V115.142H122.67V114.089H116.941V122.142ZM129.916 124.097C130.442 124.09 130.88 123.659 130.887 123.126C130.88 122.593 130.442 122.155 129.916 122.155C129.383 122.155 128.938 122.593 128.945 123.126C128.938 123.659 129.383 124.09 129.916 124.097Z" fill="#3E58E0"/>
</g>
<defs>
<clipPath id="clip0_556_27389">
<rect width="132" height="130" fill="white" transform="translate(0 0.000976562)"/>
</clipPath>
</defs>
</svg>
