<svg width="64" height="64" viewBox="0 0 64 64" fill="none" xmlns="http://www.w3.org/2000/svg">
<g clip-path="url(#clip0_626_23784)">
<rect width="64" height="64" rx="32" fill="#90B3F8"/>
<g clip-path="url(#clip1_626_23784)">
<path fill-rule="evenodd" clip-rule="evenodd" d="M75.4498 57.9306C68.4977 50.2176 51.8674 43.1029 34.9703 42.6478C14.5201 42.0971 -5.30415 50.142 -10.8926 59.8942C-21.0981 77.7039 -18.3944 123.967 -18.3944 123.967H82.1085C82.1085 123.967 85.723 69.3283 75.4498 57.9306Z" fill="#FFB8C0"/>
<path fill-rule="evenodd" clip-rule="evenodd" d="M75.4499 57.9306C68.4978 50.2176 51.8675 43.1029 34.9705 42.6478C14.5202 42.0971 -5.30399 50.142 -10.8924 59.8942C-15.4959 67.9277 -17.4727 81.7508 -18.2559 94.5056C-18.2822 94.9327 -18.3306 95.7833 -18.3306 95.7833L2.81735 95.9202L2.81977 123.967H63.5768V95.9202H82.6527C82.6527 95.9202 82.6301 95.1393 82.6167 94.6517C82.2086 79.7239 80.5217 63.5575 75.4499 57.9306Z" fill="#688BFF"/>
<path fill-rule="evenodd" clip-rule="evenodd" d="M36.0421 42.6211C36.0421 42.6211 40.441 58.7214 39.677 85.2066C39.1166 104.632 39.677 123.969 39.677 123.969H28.7454V85.3977C28.7454 64.9334 28.6839 55.1924 25.5645 43.0782C28.2578 42.6761 33.2369 42.3728 36.0421 42.6211Z" fill="white"/>
<path fill-rule="evenodd" clip-rule="evenodd" d="M25.8124 42.2539L19.1216 43.8866L20.785 53.8078L27.348 51.4939L25.8124 44.1525V42.2539Z" fill="#3463FF"/>
<path fill-rule="evenodd" clip-rule="evenodd" d="M36.0011 42.6204L37.6905 50.7683L43.6687 52.3109L42.2881 43.3258L35.7651 41.5723" fill="#3463FF"/>
<path fill-rule="evenodd" clip-rule="evenodd" d="M35.3104 37.2761L25.8477 34.7852L25.8125 44.1079C25.8125 44.1079 25.9706 46.273 31.0037 46.1983C36.5705 46.1157 36.2411 44.0389 36.2411 44.0389L35.3104 37.2761Z" fill="#FFB8C0"/>
<path fill-rule="evenodd" clip-rule="evenodd" d="M35.3085 37.2761L30.6416 36.166C31.0488 38.8536 33.2183 42.8207 36.263 44.0844L35.3085 37.2761Z" fill="#FF9CA0"/>
</g>
<g clip-path="url(#clip2_626_23784)">
<path fill-rule="evenodd" clip-rule="evenodd" d="M23.8191 23.0569C23.8191 23.0569 32.2285 23.648 36.709 23.5491C41.0906 23.4502 43.2726 21.7649 43.2726 21.7649C43.2726 21.7649 41.5784 14.0938 34.0149 14.0938C23.0675 14.0938 23.8191 23.0569 23.8191 23.0569Z" fill="#FFB8C0"/>
<path fill-rule="evenodd" clip-rule="evenodd" d="M25.9976 36.7638C25.9976 36.7638 24.1021 36.1118 23.8508 31.8739C23.6048 27.7257 24.569 27.5306 23.4308 25.496C22.3108 23.4938 22.5027 18.7061 24.5315 16.2086C27.4507 12.6153 29.4365 12.4221 29.4365 12.4221C29.4365 12.4221 32.4984 10.9596 34.633 10.8082C42.7733 10.2308 47.8766 19.0936 43.2446 21.3695C39.0159 23.4471 27.3472 22.7177 27.3472 22.7177L25.9976 36.7638Z" fill="#382149"/>
<path fill-rule="evenodd" clip-rule="evenodd" d="M26.1535 29.7041L26.1269 36.7717C29.1679 37.8003 32.2898 38.6871 35.5896 39.2626C35.5896 39.2626 44.0431 41.017 44.2417 33.4043C44.4458 25.5739 43.2722 21.7695 43.2722 21.7695C38.0332 23.1253 32.8967 22.8128 26.8048 22.1527C20.6154 21.482 20.5045 29.5476 26.1535 29.7041Z" fill="#FFB8C0"/>
</g>
<path fill-rule="evenodd" clip-rule="evenodd" d="M39.1079 27.2148L41.0852 31.7567L39.1691 32.0038L39.1079 27.2148Z" fill="#FF5F71"/>
<path d="M38.1675 34.001C38.1675 34.001 38.9956 34.752 40.3162 34.5164C41.6372 34.2831 42.0256 33.5176 42.0256 33.5176" stroke="#310234" stroke-width="0.566878" stroke-miterlimit="1.5" stroke-linecap="round" stroke-linejoin="round"/>
<path d="M41.3546 27.8207C41.7619 27.8207 42.0921 27.3628 42.0921 26.798C42.0921 26.2332 41.7619 25.7754 41.3546 25.7754C40.9474 25.7754 40.6172 26.2332 40.6172 26.798C40.6172 27.3628 40.9474 27.8207 41.3546 27.8207Z" fill="#310234"/>
<path d="M35.6349 28.6312C36.0422 28.6312 36.3723 28.1734 36.3723 27.6086C36.3723 27.0438 36.0422 26.5859 35.6349 26.5859C35.2276 26.5859 34.8975 27.0438 34.8975 27.6086C34.8975 28.1734 35.2276 28.6312 35.6349 28.6312Z" fill="#310234"/>
<path d="M25.6685 22.2617L33.5615 25.0568" stroke="#382149" stroke-width="0.377308" stroke-miterlimit="1.5" stroke-linecap="round" stroke-linejoin="round"/>
<path d="M35.5397 30.9231C37.0659 30.9231 38.3032 29.3737 38.3032 27.4625C38.3032 25.5513 37.0659 24.002 35.5397 24.002C34.0135 24.002 32.7764 25.5513 32.7764 27.4625C32.7764 29.3737 34.0135 30.9231 35.5397 30.9231Z" stroke="#382149" stroke-width="0.377751" stroke-miterlimit="1.5" stroke-linecap="round" stroke-linejoin="round"/>
<path d="M42.201 29.8684C43.6278 29.8684 44.7844 28.319 44.7844 26.4078C44.7844 24.4966 43.6278 22.9473 42.201 22.9473C40.7742 22.9473 39.6177 24.4966 39.6177 26.4078C39.6177 28.319 40.7742 29.8684 42.201 29.8684Z" stroke="#382149" stroke-width="0.376879" stroke-miterlimit="1.5" stroke-linecap="round" stroke-linejoin="round"/>
<path d="M38.167 26.408L39.6173 26.1289" stroke="#382149" stroke-width="0.377308" stroke-miterlimit="1.5" stroke-linecap="round" stroke-linejoin="round"/>
<path fill-rule="evenodd" clip-rule="evenodd" d="M26.6221 28.4102L25.5387 21.1836L28.3633 21.563L26.6221 28.4102Z" fill="#382149"/>
</g>
<defs>
<clipPath id="clip0_626_23784">
<rect width="64" height="64" rx="32" fill="white"/>
</clipPath>
<clipPath id="clip1_626_23784">
<rect width="105.475" height="99.3221" fill="white" transform="translate(-18.9385 24.6777)"/>
</clipPath>
<clipPath id="clip2_626_23784">
<rect width="33.4003" height="33.4003" fill="white" transform="translate(17.0986 6)"/>
</clipPath>
</defs>
</svg>
