<svg width="132" height="130" viewBox="0 0 132 130" fill="none" xmlns="http://www.w3.org/2000/svg">
<g clip-path="url(#clip0_707_5927)">
<path d="M66.1033 99.4926C90.737 99.4926 110.707 95.7613 110.707 91.1584C110.707 86.5556 90.737 82.8242 66.1033 82.8242C41.4696 82.8242 21.5 86.5556 21.5 91.1584C21.5 95.7613 41.4696 99.4926 66.1033 99.4926Z" fill="#F5F5F7" fill-opacity="0.8"/>
<path fill-rule="evenodd" clip-rule="evenodd" d="M101.785 66.6734L86.0452 47.3017C85.29 46.3899 84.186 45.8379 83.0235 45.8379H49.1814C48.0196 45.8379 46.9156 46.3899 46.1604 47.3017L30.4209 66.6734V76.7938H101.786V66.6734H101.785Z" fill="#3E58E0"/>
<path fill-rule="evenodd" clip-rule="evenodd" d="M43.7566 20.8359H88.4493C89.1473 20.8359 89.8166 21.1132 90.3102 21.6067C90.8037 22.1002 91.0809 22.7696 91.0809 23.4675V84.878C91.0809 85.576 90.8037 86.2453 90.3102 86.7388C89.8166 87.2324 89.1473 87.5096 88.4493 87.5096H43.7566C43.0586 87.5096 42.3893 87.2324 41.8958 86.7388C41.4023 86.2453 41.125 85.576 41.125 84.878V23.4675C41.125 22.7696 41.4023 22.1002 41.8958 21.6067C42.3893 21.1132 43.0586 20.8359 43.7566 20.8359V20.8359Z" fill="#ECEEFF"/>
<path fill-rule="evenodd" clip-rule="evenodd" d="M49.5777 27.3848H82.6283C82.9773 27.3848 83.312 27.5234 83.5587 27.7702C83.8055 28.0169 83.9441 28.3516 83.9441 28.7006V45.1196C83.9441 45.4686 83.8055 45.8033 83.5587 46.05C83.312 46.2968 82.9773 46.4354 82.6283 46.4354H49.5777C49.2287 46.4354 48.894 46.2968 48.6472 46.05C48.4005 45.8033 48.2619 45.4686 48.2619 45.1196V28.7006C48.2619 28.3516 48.4005 28.0169 48.6472 27.7702C48.894 27.5234 49.2287 27.3848 49.5777 27.3848ZM49.75 53.5782H82.4559C82.8506 53.5782 83.2291 53.735 83.5082 54.0141C83.7873 54.2931 83.9441 54.6717 83.9441 55.0663C83.9441 55.461 83.7873 55.8395 83.5082 56.1186C83.2291 56.3977 82.8506 56.5545 82.4559 56.5545H49.75C49.3553 56.5545 48.9768 56.3977 48.6977 56.1186C48.4186 55.8395 48.2619 55.461 48.2619 55.0663C48.2619 54.6717 48.4186 54.2931 48.6977 54.0141C48.9768 53.735 49.3553 53.5782 49.75 53.5782ZM49.75 61.317H82.4559C82.8507 61.317 83.2293 61.4738 83.5085 61.753C83.7876 62.0321 83.9444 62.4107 83.9444 62.8055C83.9444 63.2003 83.7876 63.5789 83.5085 63.858C83.2293 64.1372 82.8507 64.294 82.4559 64.294H49.75C49.3552 64.294 48.9766 64.1372 48.6975 63.858C48.4184 63.5789 48.2615 63.2003 48.2615 62.8055C48.2615 62.4107 48.4184 62.0321 48.6975 61.753C48.9766 61.4738 49.3552 61.317 49.75 61.317ZM101.64 89.9367C101.13 91.9571 99.3395 93.4631 97.2092 93.4631H34.9967C32.8665 93.4631 31.0757 91.9565 30.5665 89.9367C30.4693 89.5517 30.4203 89.1562 30.4204 88.7591V66.6756H47.7349C49.6474 66.6756 51.1888 68.2861 51.1888 70.2413V70.2677C51.1888 72.2223 52.748 73.8006 54.6605 73.8006H77.5454C79.4579 73.8006 81.0171 72.2078 81.0171 70.2525V70.2446C81.0171 68.2894 82.5586 66.6749 84.4711 66.6749H101.786V88.7598C101.786 89.1657 101.735 89.5598 101.64 89.9367Z" fill="#DCDFFA"/>
<path fill-rule="evenodd" clip-rule="evenodd" d="M103.817 21.9026L99.3232 23.6461C99.2078 23.6909 99.082 23.7023 98.9604 23.6789C98.8388 23.6555 98.7263 23.5982 98.6357 23.5137C98.5452 23.4292 98.4804 23.3208 98.4487 23.2011C98.4171 23.0813 98.4199 22.9551 98.4568 22.8368L99.7311 18.7533C98.0278 16.8164 97.0278 14.4546 97.0278 11.9059C97.0278 5.33026 103.684 0 111.896 0C120.106 0 126.763 5.33026 126.763 11.9059C126.763 18.4816 120.107 23.8118 111.896 23.8118C108.917 23.8118 106.143 23.1105 103.817 21.9026Z" fill="#3E58E0"/>
<path d="M117.753 14.0555C118.788 14.0555 119.627 13.2264 119.627 12.2035C119.627 11.1807 118.788 10.3516 117.753 10.3516C116.718 10.3516 115.878 11.1807 115.878 12.2035C115.878 13.2264 116.718 14.0555 117.753 14.0555Z" fill="white"/>
<path fill-rule="evenodd" clip-rule="evenodd" d="M107.913 13.8248H104.165L106.071 10.584L107.913 13.8248ZM110.256 10.584H113.536V13.8248H110.256V10.584Z" fill="white"/>
<path d="M4.08008 113.309C2.22754 113.309 0.860352 114.45 0.867188 116.098C0.860352 117.766 2.22754 118.907 4.08008 118.9C5.14648 118.907 6.04883 118.518 6.62305 117.861H9.60352V119.146H10.8887V112.912H9.60352V114.32H6.5957C6.02148 113.685 5.13281 113.309 4.08008 113.309ZM2.11133 116.098C2.10449 115.072 2.93164 114.368 4.08008 114.375C5.19434 114.368 6.02148 115.072 6.02148 116.098C6.02148 117.15 5.19434 117.854 4.08008 117.861C2.93164 117.854 2.10449 117.15 2.11133 116.098ZM2.87695 120.76H9.60352V121.826H2.9043V125.012H11.3262V123.973H4.20312V122.797H10.8887V119.748H2.87695V120.76ZM7.16309 115.346H9.60352V116.836H7.16992C7.23145 116.604 7.26562 116.357 7.26562 116.098C7.26562 115.831 7.23145 115.585 7.16309 115.346ZM22.4141 112.926H21.1152V120.213H22.4141V117.068H24.2051V115.975H22.4141V112.926ZM13.2812 114.607H17.5879V116.043H13.2949V119.639H14.2793C16.6309 119.639 18.251 119.57 20.1445 119.229L20.0078 118.189C18.2236 118.49 16.7197 118.552 14.5938 118.559V117.027H18.8594V113.568H13.2812V114.607ZM14.5664 125.012H22.4141V120.787H14.5664V125.012ZM15.8379 123.959V121.799H21.1562V123.959H15.8379ZM32.0254 116.836H27.3359V114.744H31.916V113.691H26.0371V117.889H28.3477V119.488C27.1514 119.522 25.9893 119.536 24.9434 119.543L25.1211 120.582C27.4248 120.589 30.2891 120.514 32.9004 120.158L32.8047 119.201C31.7998 119.311 30.7197 119.386 29.6328 119.44V117.889H32.0254V116.836ZM26.9668 124.902H35.4297V123.85H28.2656V121.443H26.9668V124.902ZM33.748 122.1H35.0469V112.912H33.748V122.1ZM51.5898 118.668H40.4062V119.734H51.5898V118.668ZM41.7324 122.92C41.7324 124.342 43.3252 125.142 45.9844 125.135C48.623 125.142 50.2021 124.342 50.209 122.92C50.2021 121.498 48.623 120.691 45.9844 120.691C43.3252 120.691 41.7324 121.498 41.7324 122.92ZM41.8008 117.602H50.291V116.549H43.0859V114.416H50.209V113.35H41.8008V117.602ZM43.0449 122.92C43.0381 122.141 44.1113 121.703 45.9844 121.689C47.8301 121.703 48.9102 122.141 48.9102 122.92C48.9102 123.706 47.8301 124.13 45.9844 124.137C44.1113 124.13 43.0381 123.706 43.0449 122.92ZM62.6914 112.912H61.3789V125.162H62.6914V112.912ZM52.6289 121.881L53.3125 122.934C57.5166 120.917 59.041 117.813 59.041 114.225H53.2168V115.264H57.7285C57.4756 118.121 55.8828 120.329 52.6289 121.881ZM74.1484 112.912H72.8496V125.148H74.1484V118.873H76.0488V117.793H74.1484V112.912ZM64.6191 121.881L65.3438 122.893C69.377 120.903 70.9355 117.738 70.9492 114.197H65.2344V115.277H69.623C69.3564 118.135 67.6885 120.35 64.6191 121.881ZM82.7344 120.09H81.5176V125.012H85.8516V120.09H84.6484V121.512H82.7344V120.09ZM80.3008 116.262C80.2939 117.95 81.6406 119.112 83.5137 119.105C85.1406 119.112 86.3984 118.183 86.6514 116.781H89.0371V119.406H90.3359V112.912H89.0371V115.715H86.6445C86.3779 114.341 85.127 113.432 83.5137 113.432C81.6406 113.432 80.2939 114.587 80.3008 116.262ZM81.5449 116.262C81.5381 115.216 82.3584 114.505 83.5137 114.512C84.6484 114.505 85.4551 115.216 85.4551 116.262C85.4551 117.321 84.6484 118.046 83.5137 118.053C82.3584 118.046 81.5381 117.321 81.5449 116.262ZM82.7344 124V122.496H84.6484V124H82.7344ZM85.9199 124.123L86.5762 125.107C87.6289 124.67 88.3467 123.856 88.75 122.913C89.1396 123.884 89.8574 124.684 90.9648 125.107L91.6348 124.123C90.124 123.59 89.3994 122.291 89.4062 121.006V120.008H88.1211V121.006C88.1211 122.229 87.3965 123.515 85.9199 124.123ZM94.8887 120.254H93.6035V125.012H101.943V120.254H100.645V121.553H94.8887V120.254ZM92.2227 119.488H103.393V118.408H92.2227V119.488ZM92.8242 116.631L93.3164 117.656C95.2852 117.383 97.0215 116.446 97.8145 115.134C98.6006 116.439 100.33 117.383 102.312 117.656L102.777 116.631C100.433 116.344 98.4775 114.977 98.4707 113.568V113.049H97.1445V113.568C97.1377 115.018 95.1963 116.323 92.8242 116.631ZM94.8887 123.973V122.564H100.645V123.973H94.8887ZM114.494 112.912H113.195V125.162H114.494V112.912ZM105.074 122.045H106.1C108.034 122.052 110.003 121.901 112.17 121.457L111.992 120.363C110.03 120.76 108.15 120.917 106.359 120.924V114.102H105.074V122.045ZM125.965 112.912H124.666V125.189H125.965V118.723H127.934V117.656H125.965V112.912ZM116.941 122.141H117.926C120.202 122.147 121.829 122.086 123.75 121.744L123.586 120.65C121.836 120.965 120.298 121.054 118.24 121.061V115.141H122.67V114.088H116.941V122.141ZM129.916 124.096C130.442 124.089 130.88 123.658 130.887 123.125C130.88 122.592 130.442 122.154 129.916 122.154C129.383 122.154 128.938 122.592 128.945 123.125C128.938 123.658 129.383 124.089 129.916 124.096Z" fill="#3E58E0"/>
</g>
<defs>
<clipPath id="clip0_707_5927">
<rect width="132" height="130" fill="white"/>
</clipPath>
</defs>
</svg>
