<svg width="24" height="24" viewBox="0 0 24 24" fill="none" xmlns="http://www.w3.org/2000/svg">
<path d="M15.8645 14.3212H15.0515L14.7633 14.0434C15.7719 12.8701 16.3791 11.347 16.3791 9.69003C16.3791 5.99534 13.3842 3.00049 9.68954 3.00049C5.99485 3.00049 3 5.99534 3 9.69003C3 13.3847 5.99485 16.3796 9.68954 16.3796C11.3465 16.3796 12.8696 15.7724 14.0429 14.7638L14.3208 15.0519V15.865L19.4666 21.0005L21 19.467L15.8645 14.3212ZM9.68954 14.3212C7.12693 14.3212 5.05832 12.2526 5.05832 9.69003C5.05832 7.12742 7.12693 5.05881 9.68954 5.05881C12.2521 5.05881 14.3208 7.12742 14.3208 9.69003C14.3208 12.2526 12.2521 14.3212 9.68954 14.3212Z" fill="#5363F1"/>
</svg>
