<svg width="1440" height="552" viewBox="0 0 1440 552" fill="none" xmlns="http://www.w3.org/2000/svg">
<g clip-path="url(#clip0_361_14638)">
<g opacity="0.15">
<rect x="394.419" y="322.8" width="195.259" height="372.084" fill="#221EB8"/>
<rect x="390.08" y="309.819" width="203.481" height="13.5262" fill="#221EB8"/>
<rect width="95.4602" height="372.084" transform="matrix(-1 0 0 1 685.139 322.8)" fill="#060077"/>
<rect width="97.2186" height="13.5262" transform="matrix(-1 0 0 1 690.779 309.819)" fill="#060077"/>
<rect width="45.218" height="54.1048" transform="matrix(-1 0 0 1 453.385 357.161)" fill="#5C69ED"/>
<rect width="45.218" height="54.1048" transform="matrix(-1 0 0 1 453.385 427.593)" fill="#5C69ED"/>
<rect width="45.218" height="54.1048" transform="matrix(-1 0 0 1 453.385 495.862)" fill="#5C69ED"/>
<rect width="45.218" height="54.1048" transform="matrix(-1 0 0 1 512.168 357.161)" fill="#5C69ED"/>
<rect width="45.218" height="54.1048" transform="matrix(-1 0 0 1 512.169 427.593)" fill="#5C69ED"/>
<rect width="45.218" height="54.1048" transform="matrix(-1 0 0 1 512.168 495.862)" fill="#5C69ED"/>
<rect width="45.218" height="54.1048" transform="matrix(-1 0 0 1 570.952 357.161)" fill="#5C69ED"/>
<rect width="45.218" height="54.1048" transform="matrix(-1 0 0 1 659.127 357.161)" fill="#5C69ED"/>
<rect width="45.218" height="54.1048" transform="matrix(-1 0 0 1 570.951 427.593)" fill="#5C69ED"/>
<rect width="45.218" height="54.1048" transform="matrix(-1 0 0 1 570.951 495.862)" fill="#5C69ED"/>
<rect width="45.218" height="54.1048" transform="matrix(-1 0 0 1 659.127 427.593)" fill="#5C69ED"/>
<rect width="45.218" height="54.1048" transform="matrix(-1 0 0 1 659.127 495.862)" fill="#5C69ED"/>
<rect x="706.834" y="508.887" width="226.09" height="187.112" fill="#221EB8"/>
<path d="M706.834 508.887H932.924L910.315 400.678H729.443L706.834 508.887Z" fill="#171FC4"/>
<rect width="108.523" height="187.112" transform="matrix(-1 0 0 1 1041.45 508.887)" fill="#060077"/>
<path d="M1041.45 508.887H932.924L910.315 400.678H1018.84L1041.45 508.887Z" fill="#252CBE"/>
<rect width="49.7398" height="47.3417" transform="matrix(-1 0 0 1 876.4 434.493)" fill="#5C69ED"/>
<rect width="40.6962" height="47.3417" transform="matrix(-1 0 0 1 910.314 531.431)" fill="#5C69ED"/>
<rect width="131.132" height="47.3417" transform="matrix(-1 0 0 1 856.053 531.431)" fill="#5C69ED"/>
<rect width="74.6097" height="47.3417" transform="matrix(-1 0 0 1 1027.88 531.431)" fill="#5C69ED"/>
<rect width="49.7398" height="47.3417" transform="matrix(-1 0 0 1 813.096 434.493)" fill="#5C69ED"/>
<path d="M1000.75 481.835H952.102L941.967 434.493H990.615L1000.75 481.835Z" fill="#5C69ED"/>
<rect width="11.1436" height="29.7163" transform="matrix(-1 0 0 1 1299.19 205.682)" fill="#252CBE"/>
<rect width="11.1436" height="22.2872" transform="matrix(-1 0 0 1 1310.33 213.111)" fill="#221EB8"/>
<rect width="11.1436" height="29.7163" transform="matrix(-1 0 0 1 1321.47 205.682)" fill="#252CBE"/>
<rect x="1113.46" y="253.971" width="211.728" height="442.029" fill="#221EB8"/>
<rect x="1106.03" y="235.397" width="226.586" height="18.5727" fill="#252CBE"/>
<rect x="1332.62" y="235.397" width="78.0052" height="18.5727" fill="#252CBE"/>
<rect x="1325.19" y="253.971" width="78.0052" height="442.029" fill="#060077"/>
<rect x="1132.03" y="291.115" width="174.583" height="40.8598" fill="#5C69ED"/>
<rect x="1347.48" y="291.115" width="37.1453" height="40.8598" fill="#5C69ED"/>
<rect x="1132.03" y="361.692" width="174.583" height="40.8598" fill="#5C69ED"/>
<rect x="1347.48" y="361.692" width="37.1453" height="40.8598" fill="#5C69ED"/>
<rect x="1132.03" y="432.268" width="174.583" height="40.8598" fill="#5C69ED"/>
<rect x="1347.48" y="432.268" width="37.1453" height="40.8598" fill="#5C69ED"/>
<rect x="1132.03" y="502.843" width="174.583" height="40.8598" fill="#5C69ED"/>
<rect x="1347.48" y="502.843" width="37.1453" height="40.8598" fill="#5C69ED"/>
<path d="M30 317.479L92.4375 272.812V696H30V317.479Z" fill="#221EB8"/>
<path d="M78.5625 107.233L182.625 30V696H78.5625V107.233Z" fill="#221EB8"/>
<rect width="90.1874" height="666" transform="matrix(-1 0 0 1 272.812 30)" fill="#252CBE"/>
<rect x="203.438" y="50.8125" width="48.5625" height="111" fill="#060077"/>
<rect x="203.438" y="272.812" width="48.5625" height="111" fill="#060077"/>
<rect x="203.438" y="550.312" width="48.5625" height="111" fill="#060077"/>
<rect x="203.438" y="203.437" width="48.5625" height="41.625" fill="#060077"/>
<rect x="203.438" y="439.312" width="48.5625" height="41.625" fill="#060077"/>
<path d="M30 317.479L92.4375 272.812V696H30V317.479Z" fill="#221EB8"/>
<path d="M141 84.1107L175.687 57.75V595.406H141L141 84.1107Z" fill="#5C69ED"/>
<path d="M92.4375 118.798L127.125 92.4375V595.406H92.4375L92.4375 118.798Z" fill="#5C69ED"/>
<path d="M43.875 330.392L78.5625 304.031V595.405H43.875L43.875 330.392Z" fill="#5C69ED"/>
</g>
</g>
<defs>
<clipPath id="clip0_361_14638">
<rect width="1440" height="552" fill="white"/>
</clipPath>
</defs>
</svg>
