<svg width="54" height="32" viewBox="0 0 54 32" fill="none" xmlns="http://www.w3.org/2000/svg">
<path d="M13.9644 5.71704V2.00024H0.916016V5.46098V5.71704V8.48351V9.17777V12.2003H13.9644V8.48351H4.63017V5.71704H13.9644Z" fill="white"/>
<path d="M14.8777 13.7526H0V17.4694H14.8777V13.7526Z" fill="white"/>
<path d="M7.43896 18.2506C6.27782 18.2506 5.14275 18.5949 4.1773 19.24C3.21184 19.8851 2.45936 20.802 2.01501 21.8748C1.57066 22.9475 1.4544 24.128 1.68092 25.2668C1.90745 26.4056 2.4666 27.4517 3.28765 28.2728C4.1087 29.0938 5.15478 29.653 6.29361 29.8795C7.43245 30.106 8.61288 29.9898 9.68563 29.5454C10.7584 29.1011 11.6753 28.3486 12.3204 27.3831C12.9655 26.4177 13.3098 25.2826 13.3098 24.1215C13.3098 22.5644 12.6913 21.0711 11.5903 19.9701C10.4893 18.8691 8.996 18.2506 7.43896 18.2506ZM7.43896 26.1409C7.03892 26.1409 6.64787 26.0222 6.31529 25.7999C5.98271 25.5776 5.72353 25.2616 5.57057 24.892C5.4176 24.5224 5.37771 24.1157 5.45595 23.7234C5.53418 23.331 5.72703 22.9708 6.01008 22.6881C6.29314 22.4054 6.65368 22.213 7.0461 22.1353C7.43851 22.0576 7.84516 22.098 8.2146 22.2514C8.58404 22.4049 8.89966 22.6645 9.12153 22.9973C9.3434 23.3302 9.46154 23.7214 9.46102 24.1215C9.46102 24.3869 9.4087 24.6497 9.30705 24.8949C9.2054 25.14 9.05641 25.3628 8.86861 25.5503C8.68081 25.7379 8.45788 25.8866 8.21257 25.9879C7.96726 26.0892 7.70438 26.1412 7.43896 26.1409Z" fill="white"/>
<path d="M45.7287 18.2534C44.5668 18.2529 43.4308 18.597 42.4645 19.2422C41.4982 19.8874 40.745 20.8047 40.3001 21.878C39.8553 22.9513 39.7387 24.1325 39.9653 25.2721C40.1918 26.4117 40.7513 27.4585 41.5728 28.2801C42.3944 29.1017 43.4412 29.6611 44.5808 29.8877C45.7204 30.1142 46.9016 29.9977 47.9749 29.5528C49.0483 29.1079 49.9656 28.3547 50.6107 27.3884C51.2559 26.4221 51.6 25.2862 51.5995 24.1243C51.5988 22.5674 50.98 21.0746 49.8792 19.9737C48.7784 18.8729 47.2855 18.2541 45.7287 18.2534ZM45.7287 26.1463C45.3286 26.1468 44.9374 26.0287 44.6045 25.8068C44.2717 25.585 44.0121 25.2693 43.8586 24.8999C43.7052 24.5305 43.6648 24.1238 43.7425 23.7314C43.8202 23.339 44.0126 22.9784 44.2953 22.6954C44.578 22.4123 44.9383 22.2195 45.3306 22.1413C45.7229 22.063 46.1296 22.1029 46.4992 22.2559C46.8689 22.4088 47.1848 22.668 47.4071 23.0006C47.6294 23.3332 47.7481 23.7242 47.7481 24.1243C47.7481 24.6601 47.5354 25.174 47.1568 25.5531C46.7781 25.9323 46.2645 26.1456 45.7287 26.1463Z" fill="white"/>
<path d="M47.814 13.7577V12.2056H52.2515V9.45492H42.9199V8.51516H52.1089V5.79884H42.9199V4.8274H52.2515V2.00549H39.2031V5.46623V5.71965V8.48876V9.18302V12.2056H44.3348V13.7577H38.2871V17.4745H53.1675V13.7577H47.814Z" fill="white"/>
<path d="M34.3482 2.00549H30.6235V17.6276H34.3482V2.00549Z" fill="white"/>
<path d="M19.0249 2.44116V6.15267H25.0013C25.0013 6.15267 25.5583 8.41759 19.3866 14.5551L22.1398 17.3374C22.1398 17.3374 28.7604 11.39 28.7604 6.15267V2.44116H19.0249Z" fill="white"/>
</svg>
